# xmcd
#
# Track frame offsets: 
#        150
#        26271
#        55669
#        78825
#        119005
#        137350
#        143520
#        155239
#        194851
#        229986
#        265062
#
# Disc length: 3915 seconds
#
# Revision: 0
# Processed by: cddbd v1.5.2PL0 Copyright (c) Steve Scherf et al.
# Submitted via: ExactAudioCopy v0.95b4
#
DISCID=940f490b
DTITLE=Eric Clapton - 1974-12-05 - LZ Was Here - CD1
DYEAR=1974
DGENRE=Blues
TTITLE0=Smile
TTITLE1=Let It Grow
TTITLE2=Can't Find My Way Home
TTITLE3=Tell The Truth
TTITLE4=The Sky Is Crying
TTITLE5=Have You Ever Loved A Woman
TTITLE6=Ramblin On My Mind
TTITLE7=Badge
TTITLE8=Little Rachel
TTITLE9=I Shot The Sheriff
TTITLE10=Better Make It Through The Day
EXTD=
EXTT0=
EXTT1=
EXTT2=
EXTT3=
EXTT4=
EXTT5=
EXTT6=
EXTT7=
EXTT8=
EXTT9=
EXTT10=
PLAYORDER=
